<svg width="18" height="18" viewBox="0 0 18 18" fill="none" xmlns="http://www.w3.org/2000/svg">
<path d="M17.7801 16.7205L12.6614 11.6018C13.6529 10.377 14.2498 8.8208 14.2498 7.12583C14.2498 3.19736 11.0534 0.00088501 7.12491 0.00088501C3.19645 0.00088501 0 3.19733 0 7.12579C0 11.0543 3.19648 14.2507 7.12494 14.2507C8.81991 14.2507 10.3762 13.6538 11.6009 12.6622L16.7196 17.7809C16.8658 17.9272 17.0578 18.0007 17.2498 18.0007C17.4419 18.0007 17.6339 17.9272 17.7801 17.7809C18.0733 17.4877 18.0733 17.0137 17.7801 16.7205ZM7.12494 12.7507C4.02296 12.7507 1.5 10.2278 1.5 7.12579C1.5 4.02381 4.02296 1.50085 7.12494 1.50085C10.2269 1.50085 12.7499 4.02381 12.7499 7.12579C12.7499 10.2278 10.2269 12.7507 7.12494 12.7507Z" fill="#2F2F2F"/>
</svg>
